ffmpeg version 2.8.11-0ubuntu0.16.04.1 Copyright (c) 2000-2017 the FFmpeg developers
  built with gcc 5.4.0 (Ubuntu 5.4.0-6ubuntu1~16.04.4) 20160609
  configuration: --prefix=/usr --extra-version=0ubuntu0.16.04.1 --build-suffix=-ffmpeg --toolchain=hardened --libdir=/usr/lib/x86_64-linux-gnu --incdir=/usr/include/x86_64-linux-gnu --cc=cc --cxx=g++ --enable-gpl --enable-shared --disable-stripping --disable-decoder=libopenjpeg --disable-decoder=libschroedinger --enable-avresample --enable-avisynth --enable-gnutls --enable-ladspa --enable-libass --enable-libbluray --enable-libbs2b --enable-libcaca --enable-libcdio --enable-libflite --enable-libfontconfig --enable-libfreetype --enable-libfribidi --enable-libgme --enable-libgsm --enable-libmodplug --enable-libmp3lame --enable-libopenjpeg --enable-libopus --enable-libpulse --enable-librtmp --enable-libschroedinger --enable-libshine --enable-libsnappy --enable-libsoxr --enable-libspeex --enable-libssh --enable-libtheora --enable-libtwolame --enable-libvorbis --enable-libvpx --enable-libwavpack --enable-libwebp --enable-libx265 --enable-libxvid --enable-libzvbi --enable-openal --enable-opengl --enable-x11grab --enable-libdc1394 --enable-libiec61883 --enable-libzmq --enable-frei0r --enable-libx264 --enable-libopencv
  libavutil      54. 31.100 / 54. 31.100
  libavcodec     56. 60.100 / 56. 60.100
  libavformat    56. 40.101 / 56. 40.101
  libavdevice    56.  4.100 / 56.  4.100
  libavfilter     5. 40.101 /  5. 40.101
  libavresample   2.  1.  0 /  2.  1.  0
  libswscale      3.  1.101 /  3.  1.101
  libswresample   1.  2.101 /  1.  2.101
  libpostproc    53.  3.100 / 53.  3.100
[mp3 @ 0x14518c0] Unknown attached picture mimetype: ('image/png', None), skipping.
[mp3 @ 0x14518c0] Skipping 0 bytes of junk at 17522.
Input #0, mp3, from 'adam-mickiewicz-sonety-krymskie-aluszta-w-dzien.mp3':
  Metadata:
    title           : Adam Mickiewicz, Sonety krymskie, Ałuszta w dzień
    artist          : Piotr Głowacki
    album           : Wolne Lektury
    encoder         : Lavf53.21.0
    genre           : Speech
    originator_reference: fZIjyaWbSvcaaaGk
    date            : 2008-10-09
    performer       : Sebastian Buttny
    album_artist    : Fundacja Nowoczesna Polska
    time_reference  : 10461657
    copyright       : 2008 Fundacja Nowoczesna Polska. Licensed to the public under http://creativecommons.org/licenses/by-sa/3.0/deed.pl verify at http://wolnelektury.pl/katalog/lektura/sonety-krymskie-aluszta-w-dzien/
    creation_time   : 0006-40-46
    encoded_by      : Pro Tools
    publisher       : Fundacja Nowoczesna Polska
  Duration: 00:00:58.38, start: 0.000000, bitrate: 66 kb/s
    Stream #0:0: Audio: mp3, 44100 Hz, mono, s16p, 64 kb/s
Output #0, null, to 'pipe:':
  Metadata:
    title           : Adam Mickiewicz, Sonety krymskie, Ałuszta w dzień
    artist          : Piotr Głowacki
    album           : Wolne Lektury
    publisher       : Fundacja Nowoczesna Polska
    genre           : Speech
    originator_reference: fZIjyaWbSvcaaaGk
    date            : 2008-10-09
    performer       : Sebastian Buttny
    album_artist    : Fundacja Nowoczesna Polska
    time_reference  : 10461657
    copyright       : 2008 Fundacja Nowoczesna Polska. Licensed to the public under http://creativecommons.org/licenses/by-sa/3.0/deed.pl verify at http://wolnelektury.pl/katalog/lektura/sonety-krymskie-aluszta-w-dzien/
    encoded_by      : Pro Tools
    encoder         : Lavf56.40.101
    Stream #0:0: Audio: pcm_s16le, 44100 Hz, mono, s16, 705 kb/s
    Metadata:
      encoder         : Lavc56.60.100 pcm_s16le
Stream mapping:
  Stream #0:0 -> #0:0 (mp3 (native) -> pcm_s16le (native))
Press [q] to stop, [?] for help
[silencedetect @ 0x1464820] silence_start: -0.00367347
[silencedetect @ 0x1464820] silence_end: 0.626939 | silence_duration: 0.630612
[silencedetect @ 0x1464820] silence_start: 1.66816
[silencedetect @ 0x1464820] silence_end: 2.35102 | silence_duration: 0.682857
[silencedetect @ 0x1464820] silence_start: 3.36612
[silencedetect @ 0x1464820] silence_end: 4.3102 | silence_duration: 0.944082
[silencedetect @ 0x1464820] silence_start: 5.24694
[silencedetect @ 0x1464820] silence_end: 6.76571 | silence_duration: 1.51878
[silencedetect @ 0x1464820] silence_start: 9.47878
[silencedetect @ 0x1464820] silence_end: 10.6057 | silence_duration: 1.12694
[silencedetect @ 0x1464820] silence_start: 13.1882
[silencedetect @ 0x1464820] silence_end: 14.3673 | silence_duration: 1.17918
[silencedetect @ 0x1464820] silence_start: 18.3865
[silencedetect @ 0x1464820] silence_end: 18.9388 | silence_duration: 0.552245
[silencedetect @ 0x1464820] silence_start: 19.98
[silencedetect @ 0x1464820] silence_end: 21.8645 | silence_duration: 1.88449
[silencedetect @ 0x1464820] silence_start: 22.749
[silencedetect @ 0x1464820] silence_end: 23.6931 | silence_duration: 0.944082
[silencedetect @ 0x1464820] silence_start: 27.9996
[silencedetect @ 0x1464820] silence_end: 28.6041 | silence_duration: 0.60449
[silencedetect @ 0x1464820] silence_start: 30.7947
[silencedetect @ 0x1464820] silence_end: 31.7388 | silence_duration: 0.944082
[silencedetect @ 0x1464820] silence_start: 34.3473
[silencedetect @ 0x1464820] silence_end: 36.4669 | silence_duration: 2.11959
[silencedetect @ 0x1464820] silence_start: 38.762
[silencedetect @ 0x1464820] silence_end: 39.6278 | silence_duration: 0.865714
[silencedetect @ 0x1464820] silence_start: 40.3294
[silencedetect @ 0x1464820] silence_end: 41.0122 | silence_duration: 0.682857
[silencedetect @ 0x1464820] silence_start: 42.9416
[silencedetect @ 0x1464820] silence_end: 43.9641 | silence_duration: 1.02245
[silencedetect @ 0x1464820] silence_start: 49.3678
[silencedetect @ 0x1464820] silence_end: 50.4424 | silence_duration: 1.07469
[silencedetect @ 0x1464820] silence_start: 56.1596
size=N/A time=00:00:58.38 bitrate=N/A    
video:0kB audio:5029kB subtitle:0kB other streams:0kB global headers:0kB muxing overhead: unknown
